# Newly authored C rear module. Local metres; pivot in geometry.json.
mtllib cockpit-c.mtl
o left_sidewall
v 0.053882685 -0.243564726 0.837305345
v 0.033882685 -0.243564726 -0.862694655
v -0.036117315 0.196435274 -0.812694655
v -0.016117315 0.296435274 0.837305345
v 0.036117315 -0.246435274 0.837694655
v 0.016117315 -0.246435274 -0.862305345
v -0.053882685 0.193564726 -0.812305345
v -0.033882685 0.293564726 0.837694655
usemtl panel_left_sidewall
f 1 2 3
usemtl panel_left_sidewall
f 1 3 4
usemtl edge_left_sidewall
f 5 7 6
usemtl edge_left_sidewall
f 5 8 7
usemtl edge_left_sidewall
f 1 5 6
usemtl edge_left_sidewall
f 1 6 2
usemtl edge_left_sidewall
f 2 6 7
usemtl edge_left_sidewall
f 2 7 3
usemtl edge_left_sidewall
f 3 7 8
usemtl edge_left_sidewall
f 3 8 4
usemtl edge_left_sidewall
f 4 8 5
usemtl edge_left_sidewall
f 4 5 1
