# Newly authored C rear module. Local metres; pivot in geometry.json.
mtllib cockpit-c.mtl
o left_rim
v 0.051385601 0.063915189 0.824473193
v 0.031385601 -0.036084811 -0.825526807
v -0.048614399 -0.046084811 -0.825526807
v -0.038614399 0.053915189 0.824473193
v 0.053614399 0.046084811 0.825526807
v 0.033614399 -0.053915189 -0.824473193
v -0.046385601 -0.063915189 -0.824473193
v -0.036385601 0.036084811 0.825526807
usemtl panel_left_rim
f 1 2 3
usemtl panel_left_rim
f 1 3 4
usemtl edge_left_rim
f 5 7 6
usemtl edge_left_rim
f 5 8 7
usemtl edge_left_rim
f 1 5 6
usemtl edge_left_rim
f 1 6 2
usemtl edge_left_rim
f 2 6 7
usemtl edge_left_rim
f 2 7 3
usemtl edge_left_rim
f 3 7 8
usemtl edge_left_rim
f 3 8 4
usemtl edge_left_rim
f 4 8 5
usemtl edge_left_rim
f 4 5 1
