# Newly authored C rear module. Local metres; pivot in geometry.json.
mtllib cockpit-c.mtl
o rear_bulkhead_upper
v -0.650000000 0.265000000 0.030000000
v 0.650000000 0.265000000 0.030000000
v 0.650000000 0.265000000 -0.030000000
v -0.650000000 0.265000000 -0.030000000
v -0.650000000 -0.265000000 0.030000000
v 0.650000000 -0.265000000 0.030000000
v 0.650000000 -0.265000000 -0.030000000
v -0.650000000 -0.265000000 -0.030000000
usemtl edge_rear_bulkhead
f 1 2 3
usemtl edge_rear_bulkhead
f 1 3 4
usemtl edge_rear_bulkhead
f 5 7 6
usemtl edge_rear_bulkhead
f 5 8 7
usemtl edge_rear_bulkhead
f 1 5 6
usemtl edge_rear_bulkhead
f 1 6 2
usemtl edge_rear_bulkhead
f 2 6 7
usemtl edge_rear_bulkhead
f 2 7 3
usemtl panel_rear_bulkhead
f 3 7 8
usemtl panel_rear_bulkhead
f 3 8 4
usemtl edge_rear_bulkhead
f 4 8 5
usemtl edge_rear_bulkhead
f 4 5 1
