# Newly authored C rear module. Local metres; pivot in geometry.json.
mtllib cockpit-c.mtl
o rear_hoop_left
v -0.245867000 0.594188000 -0.125855000
v -0.300178000 0.568686000 -0.125855000
v 0.239822000 -0.581314000 0.184145000
v 0.294133000 -0.555812000 0.184145000
v -0.239822000 0.581314000 -0.184145000
v -0.294133000 0.555812000 -0.184145000
v 0.245867000 -0.594188000 0.125855000
v 0.300178000 -0.568686000 0.125855000
usemtl panel_rear_hoop
f 1 2 3
usemtl panel_rear_hoop
f 1 3 4
usemtl edge_rear_hoop
f 5 7 6
usemtl edge_rear_hoop
f 5 8 7
usemtl edge_rear_hoop
f 1 5 6
usemtl edge_rear_hoop
f 1 6 2
usemtl edge_rear_hoop
f 2 6 7
usemtl edge_rear_hoop
f 2 7 3
usemtl edge_rear_hoop
f 3 7 8
usemtl edge_rear_hoop
f 3 8 4
usemtl edge_rear_hoop
f 4 8 5
usemtl edge_rear_hoop
f 4 5 1
